<?xml version="1.0" ?><svg id="Layer_1_1_" style="enable-background:new 0 0 64 64;" version="1.1" viewBox="0 0 64 64" xml:space="preserve" xmlns="http://www.w3.org/2000/svg" xmlns:xlink="http://www.w3.org/1999/xlink"><g><g><path d="M16,40h-6c-0.552,0-1-0.448-1-1v-6c0-0.552,0.448-1,1-1h6c0.552,0,1,0.448,1,1v6    C17,39.552,16.552,40,16,40z" style="fill:#F43AB0;"/></g><g><path d="M16,50h-6c-0.552,0-1-0.448-1-1v-6c0-0.552,0.448-1,1-1h6c0.552,0,1,0.448,1,1v6    C17,49.552,16.552,50,16,50z" style="fill:#F43AB0;"/></g><g><g><path d="M44,31h-4c-0.553,0-1-0.447-1-1v-4c0-0.553,0.447-1,1-1h4c0.553,0,1,0.447,1,1v4     C45,30.553,44.553,31,44,31z" style="fill:#F43AB0;"/></g></g><g><path d="M9.293,36.707l2,2C11.488,38.902,11.744,39,12,39s0.512-0.098,0.707-0.293l5-5c0.391-0.391,0.391-1.023,0-1.414    s-1.023-0.391-1.414,0L12,36.586l-1.293-1.293c-0.391-0.391-1.023-0.391-1.414,0S8.902,36.316,9.293,36.707z"/><path d="M16.293,42.293L12,46.586l-1.293-1.293c-0.391-0.391-1.023-0.391-1.414,0s-0.391,1.023,0,1.414l2,2    C11.488,48.902,11.744,49,12,49s0.512-0.098,0.707-0.293l5-5c0.391-0.391,0.391-1.023,0-1.414S16.684,41.902,16.293,42.293z"/><path d="M21,35h7c0.552,0,1-0.448,1-1s-0.448-1-1-1h-7c-0.552,0-1,0.448-1,1S20.448,35,21,35z"/><path d="M21,39h7c0.552,0,1-0.448,1-1s-0.448-1-1-1h-7c-0.552,0-1,0.448-1,1S20.448,39,21,39z"/><path d="M21,45h7c0.552,0,1-0.448,1-1s-0.448-1-1-1h-7c-0.552,0-1,0.448-1,1S20.448,45,21,45z"/><path d="M21,49h7c0.552,0,1-0.448,1-1s-0.448-1-1-1h-7c-0.552,0-1,0.448-1,1S20.448,49,21,49z"/><path d="M62,37c0.552,0,1-0.448,1-1V2c0-0.552-0.448-1-1-1H15c-0.552,0-1,0.448-1,1v15c0,0.039,0.018,0.072,0.022,0.109    c-0.539,0.549-1.002,1.177-1.341,1.891H10c-0.552,0-1,0.448-1,1v1H6c-2.757,0-5,2.243-5,5v32c0,2.757,2.243,5,5,5h26    c2.757,0,5-2.243,5-5v-3h22c2.206,0,4-1.794,4-4v-0.636C63,46.303,59.697,43,55.636,43c-1.967,0-3.816,0.766-5.207,2.157    l-1.308,1.308C48.776,46.81,48.317,47,47.829,47C46.82,47,46,46.18,46,45.171V44c0-0.552-0.448-1-1-1s-1,0.448-1,1v1.171    c0,0.666,0.186,1.283,0.486,1.829H37V37H62z M61,35H37v-9c0-2.414-1.721-4.434-4-4.899V3h9v5c0,0.552,0.448,1,1,1h12    c0.552,0,1-0.448,1-1V3h5V35z M50,49v4H39v-4H50z M37,52.912L32.539,51L37,49.088V52.912z M10,29h18c0.552,0,1-0.448,1-1v-1h2    v22.484l-1.394,0.597C29.238,50.238,29,50.6,29,51s0.238,0.762,0.606,0.919L31,52.516V57H7V27h2v1C9,28.552,9.448,29,10,29z     M33,48.626V26c0-0.552-0.448-1-1-1h-3v-2h3c1.654,0,3,1.346,3,3v21.769L33,48.626z M51,4c-0.552,0-1,0.448-1,1v2h-2V5    c0-0.552-0.448-1-1-1s-1,0.448-1,1v2h-2V3h10v4h-2V5C52,4.448,51.552,4,51,4z M16,3h15v18h-2v-1c0-0.552-0.448-1-1-1h-2.681    c-1.149-2.419-3.605-4-6.319-4c-1.062,0-2.08,0.249-3,0.688V3z M11,21h2.349c0.424,0,0.801-0.267,0.943-0.666    C14.998,18.34,16.89,17,19,17s4.002,1.34,4.708,3.334C23.85,20.733,24.228,21,24.651,21H27v6H11V21z M32,61H6    c-1.654,0-3-1.346-3-3V26c0-1.654,1.346-3,3-3h3v2H6c-0.552,0-1,0.448-1,1v32c0,0.552,0.448,1,1,1h26c0.552,0,1-0.448,1-1v-4.626    l2,0.857V58C35,59.654,33.654,61,32,61z M59,53h-7v-4h7c1.103,0,2,0.897,2,2S60.103,53,59,53z M55.636,45    c1.724,0,3.243,0.831,4.225,2.099C59.583,47.037,59.296,47,59,47h-7.586l0.429-0.429C52.856,45.558,54.203,45,55.636,45z"/><path d="M48,25c-0.552,0-1,0.448-1,1s0.448,1,1,1h10c0.552,0,1-0.448,1-1s-0.448-1-1-1H48z"/><path d="M54,29h-6c-0.552,0-1,0.448-1,1s0.448,1,1,1h6c0.552,0,1-0.448,1-1S54.552,29,54,29z"/><circle cx="58" cy="30" r="1"/></g></g></svg>