<svg xmlns="http://www.w3.org/2000/svg" width="135.271" height="45.962" viewBox="0 0 135.271 45.962"><defs><style>.a{fill:#f43ab0;}</style></defs><g transform="translate(-251.08 -274.983)"><path d="M278.2,298.214c0,6.634-5.684,11.093-14.142,11.093a19.562,19.562,0,0,1-11.323-3.109,2.948,2.948,0,0,1-.8-3.966h0l1.589-2.555a2.918,2.918,0,0,1,3.794-1.087,14.812,14.812,0,0,0,6.847,1.5c1.729,0,2.984-.557,2.984-1.322,0-.3-.374-1.084-3.848-1.985l-2.5-.668c-4.8-1.268-9.719-3.4-9.719-9.6,0-6.9,5.393-11.537,13.42-11.537a22.519,22.519,0,0,1,10.893,2.433,2.951,2.951,0,0,1,1.059,4.18l-1.831,2.86a2.943,2.943,0,0,1-3.713,1.082A13.816,13.816,0,0,0,265,284.255c-1.809,0-2.928.543-2.928,1.045,0,.547,1.087,1.1,3.231,1.651l2.544.734C270.375,288.344,278.2,290.384,278.2,298.214Z"/><path d="M314.054,288.292V306.03a2.724,2.724,0,0,1-2.721,2.722H305.9a2.724,2.724,0,0,1-2.721-2.722V289.512c0-2.934-2.036-4.757-5.311-4.757h-4.988a.325.325,0,0,0-.324.325v20.95a2.726,2.726,0,0,1-2.722,2.722h-5.436a2.725,2.725,0,0,1-2.723-2.722V277.706a2.725,2.725,0,0,1,2.723-2.723h16.074C308.6,274.983,314.054,280.331,314.054,288.292Z"/><path d="M347.748,277.861v28.568a2.326,2.326,0,0,1-2.323,2.323h-5.981a2.315,2.315,0,0,1-2.289-1.924,12.709,12.709,0,0,1-7.594,2.479c-7.054,0-11.98-4.494-11.98-10.927,0-6.7,5.772-11.2,14.362-11.2a35.555,35.555,0,0,1,4.924.362v-2.727h-3.226a2.326,2.326,0,0,1-2.323-2.324v-4.626a2.325,2.325,0,0,1,2.323-2.323h11.784A2.325,2.325,0,0,1,347.748,277.861Zm-14.862,17.813c-1.914,0-4.147.665-4.147,2.54,0,.586,0,2.373,2.984,2.373a5.182,5.182,0,0,0,5.015-4.6A25.984,25.984,0,0,0,332.886,295.674Z"/><path d="M386.351,292.007c0,10.025-6.716,17.3-15.97,17.3a13.737,13.737,0,0,1-8.247-2.462V318.2a2.751,2.751,0,0,1-2.747,2.747H354a2.751,2.751,0,0,1-2.747-2.747V277.73A2.751,2.751,0,0,1,354,274.983h16.382C379.635,274.983,386.351,282.143,386.351,292.007Zm-24.217.11c0,4.541,2.5,7.363,6.529,7.363,3.968,0,6.531-2.912,6.531-7.418,0-4.379-2.519-7.245-6.415-7.3l-.446-.007H362.79a.657.657,0,0,0-.656.657Z"/><rect class="a" width="11.325" height="9.308" rx="2.8" transform="translate(318.103 275.538)"/></g></svg>