<svg xmlns="http://www.w3.org/2000/svg" width="60.141" height="60.141" viewBox="0 0 60.141 60.141"><defs><style>.a{fill:#b980ff;}.b{fill:#fff;}</style></defs><g transform="translate(-274 -890)"><g transform="translate(-16 20)"><circle class="a" cx="23" cy="23" r="23" transform="translate(293 871)"/><circle class="b" cx="17" cy="17" r="17" transform="translate(293 874)"/><path d="M59.727,56.567,44.575,41.415a1.394,1.394,0,0,0-1-.411h-1.21A24.185,24.185,0,1,0,41,42.378v1.2a1.444,1.444,0,0,0,.411,1L56.567,59.727a1.411,1.411,0,0,0,2,0l1.163-1.163A1.411,1.411,0,0,0,59.727,56.567ZM24.431,45.1A20.672,20.672,0,1,1,45.1,24.431,20.658,20.658,0,0,1,24.431,45.1Z" transform="translate(290 870)"/></g></g></svg>