<svg xmlns="http://www.w3.org/2000/svg" width="60.598" height="58" viewBox="0 0 60.598 58"><defs><style>.a{fill:#b8ee30;}</style></defs><g transform="translate(-914 -889)"><path class="a" d="M929.43,887.763s26.7,37.725,26.615,36.129-1.2-18.12-1.2-18.12,14.57-12.406,13.933-13.4-20.38-4.609-20.38-4.609l-8.29-16.746h-2.891Z" transform="translate(5 20)"/><path d="M77.994,19.414,61.446,17l-7.4-15a3.628,3.628,0,0,0-6.5,0l-7.4,15L23.6,19.414a3.626,3.626,0,0,0-2,6.184L33.571,37.265l-2.832,16.48a3.622,3.622,0,0,0,5.256,3.817l14.8-7.781,14.8,7.781a3.625,3.625,0,0,0,5.256-3.817l-2.832-16.48L80,25.6a3.626,3.626,0,0,0-2-6.184ZM64.141,36,67.29,54.346,50.8,45.692l-16.48,8.665,3.149-18.349L24.124,22.993,42.553,20.32,50.8,3.613,59.044,20.32l18.429,2.673L64.141,36Z" transform="translate(893.5 889.013)"/></g></svg>