<svg xmlns="http://www.w3.org/2000/svg" width="49.568" height="56.649" viewBox="0 0 49.568 56.649"><defs><style>.a{fill:aqua;}</style></defs><g transform="translate(-600 -890)"><rect class="a" width="43" height="7" rx="2" transform="translate(604 903)"/><path d="M44.257,7.081H38.946V1.328A1.332,1.332,0,0,0,37.618,0h-.885a1.332,1.332,0,0,0-1.328,1.328V7.081H14.162V1.328A1.332,1.332,0,0,0,12.834,0h-.885a1.332,1.332,0,0,0-1.328,1.328V7.081H5.311A5.312,5.312,0,0,0,0,12.392V51.338a5.312,5.312,0,0,0,5.311,5.311H44.257a5.312,5.312,0,0,0,5.311-5.311V12.392A5.312,5.312,0,0,0,44.257,7.081ZM5.311,10.622H44.257a1.775,1.775,0,0,1,1.77,1.77V17.7H3.541V12.392A1.775,1.775,0,0,1,5.311,10.622ZM44.257,53.108H5.311a1.775,1.775,0,0,1-1.77-1.77V21.243H46.027V51.338A1.775,1.775,0,0,1,44.257,53.108Zm-27.882-17.7H11.949a1.332,1.332,0,0,1-1.328-1.328V29.652a1.332,1.332,0,0,1,1.328-1.328h4.426A1.332,1.332,0,0,1,17.7,29.652v4.426A1.332,1.332,0,0,1,16.375,35.405Zm10.622,0H22.571a1.332,1.332,0,0,1-1.328-1.328V29.652a1.332,1.332,0,0,1,1.328-1.328H27a1.332,1.332,0,0,1,1.328,1.328v4.426A1.332,1.332,0,0,1,27,35.405Zm10.622,0H33.193a1.332,1.332,0,0,1-1.328-1.328V29.652a1.332,1.332,0,0,1,1.328-1.328h4.426a1.332,1.332,0,0,1,1.328,1.328v4.426A1.332,1.332,0,0,1,37.618,35.405ZM27,46.027H22.571A1.332,1.332,0,0,1,21.243,44.7V40.274a1.332,1.332,0,0,1,1.328-1.328H27a1.332,1.332,0,0,1,1.328,1.328V44.7A1.332,1.332,0,0,1,27,46.027Zm-10.622,0H11.949A1.332,1.332,0,0,1,10.622,44.7V40.274a1.332,1.332,0,0,1,1.328-1.328h4.426A1.332,1.332,0,0,1,17.7,40.274V44.7A1.332,1.332,0,0,1,16.375,46.027Zm21.243,0H33.193A1.332,1.332,0,0,1,31.865,44.7V40.274a1.332,1.332,0,0,1,1.328-1.328h4.426a1.332,1.332,0,0,1,1.328,1.328V44.7A1.332,1.332,0,0,1,37.618,46.027Z" transform="translate(600 890)"/></g></svg>