<?xml version="1.0" ?><svg id="Layer_1_1_" style="enable-background:new 0 0 64 64;" version="1.1" viewBox="0 0 64 64" xml:space="preserve" xmlns="http://www.w3.org/2000/svg" xmlns:xlink="http://www.w3.org/1999/xlink"><g><g><path d="M43.414,31.09l-0.986-0.448c-6.683-3.038-16.585-4.5-23.428-4.632V9.99c6.843-0.132,16.746-1.594,23.428-4.632    l0.986-0.448c0.502-0.229,0.725-0.821,0.496-1.324s-0.823-0.727-1.324-0.496L41.6,3.538C34.856,6.604,24.639,8,18,8h-4    c-1.302,0-2.402,0.839-2.816,2H8c-0.552,0-1,0.447-1,1v14c0,0.553,0.448,1,1,1h3.184c0.414,1.161,1.514,2,2.816,2h4    c0.323,0,0.661,0.006,1,0.013v3.051c-1.085,0.143-2.092,0.614-2.878,1.401l-1.657,1.656C13.906,34.68,13.133,35,12.343,35H8.999    v-1c0-0.553-0.448-1-1-1h-6c-0.552,0-1,0.447-1,1v18c0,0.553,0.448,1,1,1h6c0.552,0,1-0.447,1-1v-2h1.344    c0.79,0,1.562,0.32,2.122,0.88l0.657,0.655c0.944,0.944,2.2,1.465,3.535,1.465h9.342H27h5c1.654,0,3-1.346,3-3    c0-0.771-0.301-1.468-0.78-2c0.48-0.532,0.78-1.229,0.78-2s-0.301-1.468-0.78-2c0.48-0.532,0.78-1.229,0.78-2s-0.301-1.468-0.78-2    c0.48-0.532,0.78-1.229,0.78-2c0-1.654-1.346-3-3-3h-0.184C31.928,34.686,32,34.352,32,34c0-1.654-1.346-3-3-3v-2.042    c4.476,0.728,9.026,1.879,12.6,3.504l0.986,0.448C42.72,32.972,42.861,33,43,33c0.38,0,0.743-0.218,0.911-0.586    C44.139,31.911,43.917,31.318,43.414,31.09z M9,12h2v12H9V12z M13,25V11c0-0.552,0.449-1,1-1h3v2h-1c-0.552,0-1,0.447-1,1    s0.448,1,1,1h1v8h-1c-0.552,0-1,0.447-1,1s0.448,1,1,1h1v2h-3C13.449,26,13,25.552,13,25z M6.999,51h-4V35h4V51z M21.414,37h1.769    c-0.112,0.314-0.184,0.648-0.184,1c0,0.771,0.301,1.468,0.78,2c-0.48,0.532-0.78,1.229-0.78,2s0.301,1.468,0.78,2    c-0.48,0.532-0.78,1.229-0.78,2s0.301,1.468,0.78,2c-0.48,0.532-0.78,1.229-0.78,2c0,0.352,0.072,0.686,0.184,1H21V37.414    L21.414,37z M33,42c0,0.552-0.449,1-1,1h-6.001c-0.551,0-1-0.448-1-1s0.449-1,1-1H32C32.551,41,33,41.448,33,42z M33,46    c0,0.552-0.449,1-1,1h-6.001c-0.551,0-1-0.448-1-1s0.449-1,1-1H32C32.551,45,33,45.448,33,46z M32,51h-5h-1.001    c-0.551,0-1-0.448-1-1s0.449-1,1-1H32c0.551,0,1,0.448,1,1S32.551,51,32,51z M33,38c0,0.552-0.449,1-1,1h-6.001    c-0.551,0-1-0.448-1-1s0.449-1,1-1H29h3C32.551,37,33,37.448,33,38z M30,34c0,0.552-0.449,1-1,1h-3.001H21    c-0.265,0-0.52,0.105-0.707,0.293l-0.999,0.999c-0.001,0.001-0.001,0.001-0.002,0.002l-2.999,2.999    c-0.391,0.391-0.391,1.023,0,1.414C16.488,40.902,16.744,41,17,41s0.512-0.098,0.707-0.293L19,39.414V51h-2.343    c-0.79,0-1.562-0.32-2.122-0.88l-0.657-0.655C12.934,48.521,11.678,48,10.343,48H8.999V37h3.344c1.335,0,2.591-0.521,3.535-1.465    l1.657-1.656C18.094,33.32,18.867,33,19.657,33H29C29.551,33,30,33.448,30,34z M27,31h-6v-2.913c1.876,0.1,3.911,0.289,6,0.572V31    z"/><circle cx="4" cy="11" r="1"/><circle cx="4" cy="18" r="1"/><circle cx="4" cy="25" r="1"/><path d="M28,14c-0.552,0-1,0.447-1,1v6c0,0.553,0.448,1,1,1h8c0.552,0,1-0.447,1-1v-6c0-0.553-0.448-1-1-1H28z M29,16h2v4h-2V16z     M35,20h-2v-4h2V20z"/></g><g><path d="M45,35c-1.654,0-3-1.346-3-3V4c0-1.654,1.346-3,3-3s3,1.346,3,3v28C48,33.654,46.654,35,45,35z" style="fill:#F43AB0;"/></g><g><path d="M50.829,21.728c-0.256,0-0.512-0.098-0.707-0.293c-0.391-0.391-0.391-1.023,0-1.414C50.688,19.454,51,18.7,51,17.899    s-0.312-1.555-0.878-2.121c-0.391-0.391-0.391-1.023,0-1.414s1.023-0.391,1.414,0C52.48,15.309,53,16.563,53,17.899    s-0.52,2.591-1.464,3.535C51.34,21.63,51.084,21.728,50.829,21.728z"/></g><g><path d="M54.364,25.264c-0.256,0-0.512-0.098-0.707-0.293c-0.391-0.391-0.391-1.023,0-1.414C55.168,22.046,56,20.036,56,17.899    s-0.832-4.146-2.343-5.657c-0.391-0.391-0.391-1.023,0-1.414s1.023-0.391,1.414,0C56.96,12.717,58,15.229,58,17.899    s-1.04,5.183-2.929,7.071C54.875,25.166,54.62,25.264,54.364,25.264z"/></g><g><path d="M57.899,28.799c-0.256,0-0.512-0.098-0.707-0.293c-0.391-0.391-0.391-1.023,0-1.414C59.648,24.637,61,21.372,61,17.899    s-1.352-6.737-3.808-9.192c-0.391-0.391-0.391-1.023,0-1.414s1.023-0.391,1.414,0C61.439,10.126,63,13.893,63,17.899    s-1.561,7.773-4.394,10.606C58.411,28.701,58.155,28.799,57.899,28.799z"/></g><g><path d="M62.352,50.563l-1.821-0.683l0.805-1.771c0.173-0.38,0.092-0.826-0.203-1.121l-2.121-2.121    c-0.294-0.294-0.74-0.376-1.121-0.203l-1.771,0.805l-0.683-1.821C55.29,43.259,54.917,43,54.5,43h-3    c-0.417,0-0.79,0.259-0.937,0.648l-0.683,1.821l-1.771-0.805c-0.38-0.173-0.826-0.091-1.121,0.203l-2.121,2.121    c-0.295,0.295-0.376,0.741-0.203,1.121l0.805,1.771l-1.821,0.683C43.259,50.71,43,51.083,43,51.5v3    c0,0.417,0.259,0.79,0.648,0.937l1.821,0.683l-0.805,1.771c-0.173,0.38-0.092,0.826,0.203,1.121l2.121,2.121    c0.295,0.295,0.741,0.378,1.121,0.203l1.771-0.805l0.683,1.821C50.71,62.741,51.083,63,51.5,63h3c0.417,0,0.79-0.259,0.937-0.648    l0.683-1.821l1.771,0.805c0.381,0.175,0.827,0.092,1.121-0.203l2.121-2.121c0.295-0.295,0.376-0.741,0.203-1.121l-0.805-1.771    l1.821-0.683C62.741,55.29,63,54.917,63,54.5v-3C63,51.083,62.741,50.71,62.352,50.563z M53,56c-1.657,0-3-1.343-3-3s1.343-3,3-3    s3,1.343,3,3S54.657,56,53,56z" style="fill:#F43AB0;"/></g><g><path d="M53,57c-2.206,0-4-1.794-4-4s1.794-4,4-4s4,1.794,4,4S55.206,57,53,57z M53,51c-1.103,0-2,0.897-2,2s0.897,2,2,2    s2-0.897,2-2S54.103,51,53,51z"/></g></g></svg>